Coordinates
version=1
nRows=26
nColumns=24
inDegrees=yes

Units are S.I. units (second, meters, Newtons, ...)
Angles are in degrees.

endheader
time	pelvis_tilt	pelvis_list	pelvis_rotation	pelvis_tx	pelvis_ty	pelvis_tz	hip_flexion_r	hip_adduction_r	hip_rotation_r	knee_angle_r	ankle_angle_r	subtalar_angle_r	mtp_angle_r	hip_flexion_l	hip_adduction_l	hip_rotation_l	knee_angle_l	ankle_angle_l	subtalar_angle_l	mtp_angle_l	lumbar_extension	lumbar_bending	lumbar_rotation
      4.63000000	     60.83310964	    -11.38798800	     -7.91044404	      0.42606215	      1.05908804	     -0.33846724	     15.66327915	      1.66358905	      9.00890045	     -4.17649286	     -3.72429698	     40.08482735	      0.00000000	     -0.12285282	    -25.49487886	     -8.47340095	    -59.19589398	     25.39304656	     27.50015189	      0.00000000	      0.00000000	      0.00000000	      0.00000000
      4.64000000	     60.83805997	    -11.38954603	     -7.90936749	      0.42605426	      1.05909591	     -0.33846779	     15.66511321	      1.67271635	      9.02194390	     -4.17079801	     -3.72890238	     40.05337833	      0.00000000	     -0.12866327	    -25.49631976	     -8.47713669	    -59.19594922	     25.39617868	     27.50322945	      0.00000000	      0.00000000	      0.00000000	      0.00000000
      4.65000000	     60.83911972	    -11.39007722	     -7.90870527	      0.42604204	      1.05910663	     -0.33847305	     15.67388131	      1.68405460	      9.03296524	     -4.16607554	     -3.73156410	     40.01496796	      0.00000000	     -0.13410899	    -25.49554216	     -8.48023473	    -59.18698980	     25.39914484	     27.50563667	      0.00000000	      0.00000000	      0.00000000	      0.00000000
      4.66000000	     60.83264175	    -11.38935336	     -7.90894772	      0.42603227	      1.05911931	     -0.33847972	     15.69298934	      1.69761896	      9.03988259	     -4.16105642	     -3.73301243	     39.97119439	      0.00000000	     -0.13432636	    -25.49287318	     -8.48071670	    -59.16989065	     25.40073938	     27.50560333	      0.00000000	      0.00000000	      0.00000000	      0.00000000
      4.67000000	     60.81719270	    -11.38767132	     -7.90993255	      0.42603066	      1.05913431	     -0.33848021	     15.72486676	      1.71196132	      9.04232865	     -4.15370681	     -3.73462906	     39.92395989	      0.00000000	     -0.12429293	    -25.48996966	     -8.47651906	    -59.15237866	     25.39913345	     27.50137946	      0.00000000	      0.00000000	      0.00000000	      0.00000000
      4.68000000	     60.79451987	    -11.38541326	     -7.91071389	      0.42604135	      1.05913133	     -0.33847618	     15.76890794	      1.72453492	      9.04182490	     -4.14235709	     -3.73797338	     39.87543244	      0.00000000	     -0.09970784	    -25.48930494	     -8.46682561	    -59.14923441	     25.39226129	     27.49178325	      0.00000000	      0.00000000	      0.00000000	      0.00000000
      4.69000000	     60.76927243	    -11.38223611	     -7.91033084	      0.42606782	      1.05905677	     -0.33848594	     15.81904999	      1.73330206	      9.04101763	     -4.12713941	     -3.74422052	     39.82789651	      0.00000000	     -0.05715780	    -25.49282383	     -8.45337053	    -59.17796102	     25.37864927	     27.47675389	      0.00000000	      0.00000000	      0.00000000	      0.00000000
      4.70000000	     60.74806738	    -11.37715958	     -7.90919214	      0.42610031	      1.05887975	     -0.33852182	     15.86379859	      1.73820980	      9.04239307	     -4.11057168	     -3.75364393	     39.78354293	      0.00000000	      0.00558164	    -25.50045257	     -8.44059060	    -59.24979024	     25.35851853	     27.45774039	      0.00000000	      0.00000000	      0.00000000	      0.00000000
      4.71000000	     60.73808890	    -11.36996195	     -7.90959908	      0.42610228	      1.05870142	     -0.33855828	     15.89141981	      1.74112752	      9.04715995	     -4.09622044	     -3.76528625	     39.74421820	      0.00000000	      0.08697505	    -25.50967076	     -8.43373974	    -59.35936365	     25.33465868	     27.43770590	      0.00000000	      0.00000000	      0.00000000	      0.00000000
      4.72000000	     60.74308003	    -11.36226898	     -7.91373472	      0.42603563	      1.05873219	     -0.33854404	     15.89811508	      1.74434681	      9.05483563	     -4.08598419	     -3.77698610	     39.71116705	      0.00000000	      0.17572458	    -25.51684576	     -8.43531595	    -59.47964004	     25.31237406	     27.42056547	      0.00000000	      0.00000000	      0.00000000	      0.00000000
      4.73000000	     60.75688911	    -11.35682648	     -7.91991011	      0.42591806	      1.05901095	     -0.33847435	     15.89227849	      1.74874743	      9.06369322	     -4.07820167	     -3.78592621	     39.68486631	      0.00000000	      0.24581459	    -25.51967222	     -8.44210751	    -59.56834946	     25.29801738	     27.41005397	      0.00000000	      0.00000000	      0.00000000	      0.00000000
      4.74000000	     60.76378109	    -11.35546701	     -7.92215519	      0.42583742	      1.05921476	     -0.33843415	     15.88916772	      1.75323585	      9.07173969	     -4.06870688	     -3.78969080	     39.66506494	      0.00000000	      0.26453523	    -25.51867190	     -8.44623948	    -59.58669434	     25.29635061	     27.40831395	      0.00000000	      0.00000000	      0.00000000	      0.00000000
      4.75000000	     60.75463754	    -11.35828400	     -7.91704146	      0.42586563	      1.05909558	     -0.33848409	     15.89896394	      1.75593698	      9.07764222	     -4.05431674	     -3.78743107	     39.65102656	      0.00000000	      0.21886946	    -25.51603574	     -8.44121558	    -59.52228900	     25.30787101	     27.41474895	      0.00000000	      0.00000000	      0.00000000	      0.00000000
      4.76000000	     60.73861641	    -11.36397117	     -7.90827184	      0.42597179	      1.05888573	     -0.33855703	     15.91894658	      1.75559706	      9.08118360	     -4.03562070	     -3.78047670	     39.64184077	      0.00000000	      0.13294940	    -25.51341068	     -8.42770115	    -59.40261874	     25.32764427	     27.42570235	      0.00000000	      0.00000000	      0.00000000	      0.00000000
      4.77000000	     60.72936119	    -11.36928533	     -7.90096590	      0.42607158	      1.05883529	     -0.33858176	     15.93662466	      1.75199222	      9.08313937	     -4.01697756	     -3.77199225	     39.63669675	      0.00000000	      0.05181747	    -25.51150297	     -8.41268702	    -59.28759945	     25.34661659	     27.43522858	      0.00000000	      0.00000000	      0.00000000	      0.00000000
      4.78000000	     60.72996184	    -11.36963750	     -7.89705517	      0.42612009	      1.05881931	     -0.33858876	     15.93999685	      1.74576037	      9.08474837	     -4.00459245	     -3.76587076	     39.63509299	      0.00000000	      0.01638350	    -25.51078883	     -8.40357505	    -59.24177771	     25.35497329	     27.43674770	      0.00000000	      0.00000000	      0.00000000	      0.00000000
      4.79000000	     60.73589889	    -11.36212316	     -7.89816728	      0.42610808	      1.05870437	     -0.33861330	     15.92725373	      1.73821274	      9.08710256	     -4.00413925	     -3.76540342	     39.63692004	      0.00000000	      0.05369323	    -25.51160835	     -8.40283295	    -59.30170224	     25.34579011	     27.42493347	      0.00000000	      0.00000000	      0.00000000	      0.00000000
      4.80000000	     60.74099120	    -11.34801968	     -7.90691644	      0.42602615	      1.05869900	     -0.33860418	     15.91192607	      1.73071568	      9.09073776	     -4.01813166	     -3.77222159	     39.64230429	      0.00000000	      0.17267713	    -25.51430518	     -8.40572811	    -59.45861385	     25.31703578	     27.39704507	      0.00000000	      0.00000000	      0.00000000	      0.00000000
      4.81000000	     60.73331724	    -11.33187168	     -7.92168585	      0.42590118	      1.05902273	     -0.33850874	     15.92053052	      1.72346611	      9.09548399	     -4.04393238	     -3.78589560	     39.65123457	      0.00000000	      0.35656372	    -25.52023090	     -8.40142221	    -59.66723825	     25.27098821	     27.35322102	      0.00000000	      0.00000000	      0.00000000	      0.00000000
      4.82000000	     60.69104283	    -11.31741976	     -7.93280576	      0.42583986	      1.05931751	     -0.33841569	     15.97889266	      1.71512531	      9.10045718	     -4.07500545	     -3.80441794	     39.66321534	      0.00000000	      0.56532931	    -25.53230551	     -8.37817336	    -59.87557742	     25.21161931	     27.29584217	      0.00000000	      0.00000000	      0.00000000	      0.00000000
      4.83000000	     60.60042753	    -11.30478179	     -7.93136690	      0.42593729	      1.05897482	     -0.33847032	     16.09163365	      1.70453220	      9.10420315	     -4.10583148	     -3.82532759	     39.67717366	      0.00000000	      0.76645716	    -25.55297016	     -8.33240359	    -60.05712096	     25.14179691	     27.22855785	      0.00000000	      0.00000000	      0.00000000	      0.00000000
      4.84000000	     60.48285481	    -11.29200516	     -7.92243924	      0.42612834	      1.05818233	     -0.33862194	     16.23241789	      1.69259207	      9.10525213	     -4.13572897	     -3.84668254	     39.69157039	      0.00000000	      0.96898687	    -25.58085154	     -8.27516002	    -60.22414127	     25.06244685	     27.15563957	      0.00000000	      0.00000000	      0.00000000	      0.00000000
      4.85000000	     60.38295351	    -11.27761495	     -7.91994614	      0.42623851	      1.05778945	     -0.33866714	     16.35856854	      1.68145476	      9.10313081	     -4.16670248	     -3.86720379	     39.70453636	      0.00000000	      1.20579332	    -25.61095373	     -8.22651056	    -60.41204633	     24.97454647	     27.08195637	      0.00000000	      0.00000000	      0.00000000	      0.00000000
      4.86000000	     60.32510950	    -11.26128995	     -7.92813689	      0.42620127	      1.05802042	     -0.33856761	     16.43913644	      1.67194306	      9.09921910	     -4.19766049	     -3.88579043	     39.71405335	      0.00000000	      1.47747437	    -25.63879700	     -8.20054953	    -60.64466740	     24.88258078	     27.01333524	      0.00000000	      0.00000000	      0.00000000	      0.00000000
      4.87000000	     60.30145575	    -11.24459436	     -7.93852198	      0.42611283	      1.05828847	     -0.33848185	     16.47007629	      1.66302031	      9.09660158	     -4.22232211	     -3.90122357	     39.71833877	      0.00000000	      1.73483125	    -25.66278460	     -8.19660569	    -60.90548407	     24.79664274	     26.95672417	      0.00000000	      0.00000000	      0.00000000	      0.00000000
      4.88000000	     60.29838410	    -11.23150398	     -7.94343028	      0.42607624	      1.05822919	     -0.33850050	     16.46549506	      1.65436491	      9.09876619	     -4.23342335	     -3.91245910	     39.71637824	      0.00000000	      1.91517144	    -25.68209506	     -8.20425067	    -61.13606948	     24.73113881	     26.91963008	      0.00000000	      0.00000000	      0.00000000	      0.00000000
